<?xml version="1.0" encoding="UTF-8" standalone="no"?>
<!-- Created with Inkscape (http://www.inkscape.org/) -->

<svg
   xmlns:dc="http://purl.org/dc/elements/1.1/"
   xmlns:cc="http://creativecommons.org/ns#"
   xmlns:rdf="http://www.w3.org/1999/02/22-rdf-syntax-ns#"
   xmlns:svg="http://www.w3.org/2000/svg"
   xmlns="http://www.w3.org/2000/svg"
   xmlns:sodipodi="http://sodipodi.sourceforge.net/DTD/sodipodi-0.dtd"
   xmlns:inkscape="http://www.inkscape.org/namespaces/inkscape"
   width="744.09448819"
   height="1052.3622047"
   id="svg2"
   version="1.1"
   inkscape:version="0.48.4 r9939"
   sodipodi:docname="logo_dots.svg"
   inkscape:export-filename="/home/david/siaDots68.png"
   inkscape:export-xdpi="12.748418"
   inkscape:export-ydpi="12.748418">
  <sodipodi:namedview
     id="base"
     pagecolor="#ffffff"
     bordercolor="#666666"
     borderopacity="1.0"
     inkscape:pageopacity="0.0"
     inkscape:pageshadow="2"
     inkscape:zoom="0.7"
     inkscape:cx="75.698714"
     inkscape:cy="620.17919"
     inkscape:document-units="px"
     inkscape:current-layer="svg2"
     showgrid="false"
     showguides="false"
     inkscape:guide-bbox="true"
     inkscape:snap-global="true"
     inkscape:snap-bbox="true"
     inkscape:bbox-paths="false"
     inkscape:snap-to-guides="true"
     inkscape:snap-grids="true"
     inkscape:window-width="1598"
     inkscape:window-height="882"
     inkscape:window-x="0"
     inkscape:window-y="16"
     inkscape:window-maximized="0"
     inkscape:snap-bbox-edge-midpoints="false"
     inkscape:snap-bbox-midpoints="false"
     inkscape:snap-midpoints="false"
     inkscape:snap-object-midpoints="true"
     inkscape:snap-nodes="true">
    <inkscape:grid
       id="grid2998"
       type="xygrid" />
    <sodipodi:guide
       id="guide3000"
       position="74.246212,678.31743"
       orientation="0,1" />
    <sodipodi:guide
       id="guide3002"
       position="294.96454,886.91394"
       orientation="1,0" />
  </sodipodi:namedview>
  <defs
     id="defs4">
    <inkscape:perspective
       id="perspective3849"
       inkscape:persp3d-origin="372.04724 : 350.78739 : 1"
       inkscape:vp_z="744.09448 : 526.18109 : 1"
       inkscape:vp_y="0 : 1000 : 0"
       inkscape:vp_x="0 : 526.18109 : 1"
       sodipodi:type="inkscape:persp3d" />
  </defs>
  <metadata
     id="metadata7">
    <rdf:RDF>
      <cc:Work
         rdf:about="">
        <dc:format>image/svg+xml</dc:format>
        <dc:type
           rdf:resource="http://purl.org/dc/dcmitype/StillImage" />
        <dc:title></dc:title>
      </cc:Work>
    </rdf:RDF>
  </metadata>
  <g
     id="layer1"
     inkscape:groupmode="layer"
     inkscape:label="Layer 1">
    <g
       transform="matrix(0.70982143,0,0,0.70982143,153.03571,116.93545)"
       id="g3841">
      <g
         id="g3835">
        <rect
           rx="32"
           y="152.36218"
           x="40"
           height="420"
           width="320"
           id="rect3026"
           style="fill:#333333;fill-opacity:1" />
        <path
           d="m 330,412.36218 c 0,71.79702 -58.20298,130 -130,130 -71.79702,0 -130,-58.20298 -130,-130 0,-71.79701 58.20298,-130 130,-130 71.79702,0 130,58.20299 130,130 z"
           sodipodi:ry="130"
           sodipodi:rx="130"
           sodipodi:cy="412.36218"
           sodipodi:cx="200"
           id="path3016"
           style="fill:#e6e6e6;fill-opacity:1"
           sodipodi:type="arc" />
        <path
           d="m 240,412.36218 c 0,22.09139 -17.90861,40 -40,40 -22.09139,0 -40,-17.90861 -40,-40 0,-22.09139 17.90861,-40 40,-40 22.09139,0 40,17.90861 40,40 z"
           sodipodi:ry="40"
           sodipodi:rx="40"
           sodipodi:cy="412.36218"
           sodipodi:cx="200"
           id="path3010"
           style="fill:#333333"
           sodipodi:type="arc" />
        <path
           d="m 340,202.36218 c 0,16.56855 -13.43146,30 -30,30 -16.56854,0 -30,-13.43145 -30,-30 0,-16.56854 13.43146,-30 30,-30 16.56854,0 30,13.43146 30,30 z"
           sodipodi:ry="30"
           sodipodi:rx="30"
           sodipodi:cy="202.36218"
           sodipodi:cx="310"
           id="path3034"
           style="fill:#e6e6e6;fill-opacity:1"
           sodipodi:type="arc" />
      </g>
      <path
         style="fill:#e6e6e6;fill-opacity:1;stroke:#333333;stroke-width:13.5;stroke-miterlimit:4;stroke-opacity:1"
         d="m 58.1621,225.48694 62.95178,-45.6845 77.98442,141.85745 -30.24956,21.95229 z"
         id="rect3832"
         inkscape:connector-curvature="0"
         sodipodi:nodetypes="ccccc" />
    </g>
    <path
       d="M521.915469849 399.701587985C517.353230953 399.169129488 513.407694045 396.535702686 511.449159172 392.380986496C509.490624298 388.226270306 509.785330979 384.225851883 512.147826263 380.286801002C514.510321546 376.347750121 518.794815841 373.968293237 523.387381587 374.044750228C527.979947358 374.121205719 532.182864615 376.641958179 534.412935102 380.657464551C536.64300559 384.672970923 536.259357941 390.455658688 533.640535612 394.229157738C531.021713283 398.002656788 526.477708571 400.234047973 521.915469675 399.701589475C521.915469675 399.701589475 521.915469501 399.701590965 521.915469501 399.701590965M494.181433533 485.743702761C490.166984891 483.511703695 487.57242332 479.591131865 487.349706073 475.00332046C487.126988827 470.415509055 489.077892642 466.398369457 492.857223402 463.787953216C496.636554162 461.177536976 501.27129109 460.83136377 505.483180354 462.663739014C509.695070217 464.496112882 512.60742493 468.749737784 512.978446329 473.327942351C513.349467727 477.906146919 511.013571498 482.702475875 507.151768897 485.189260371C503.289966296 487.676044867 498.195881445 487.975703138 494.181432804 485.743704072C494.181432804 485.743704072 494.181432075 485.743705383 494.181432075 485.743705383M435.24925169 554.299864859C432.386913249 550.707572441 431.516657301 546.146407586 433.054910483 541.818436521C434.593163664 537.490465457 437.962052052 534.568544226 442.449577171 533.588909307C446.937102291 532.609274388 451.399448561 534.097651294 454.601136306 537.391094968C457.802825127 540.684537595 458.835934987 545.679240443 457.440561154 550.055368656C456.045187321 554.431496869 452.014618387 557.936228983 447.497358908 558.768048182C442.980099428 559.599867382 438.111588957 557.892158213 435.249250517 554.299865794C435.249250517 554.299865794 435.249249344 554.299866729 435.249249344 554.299866729M354.325983546 594.613507137C353.074622975 590.194041969 354.276074722 585.44269483 357.477763543 582.149252202C360.679452363 578.855809574 364.463279107 577.483939742 368.980538586 578.315758941C373.497798066 579.147578141 377.040108576 582.254947963 378.719954452 586.529952525C380.399801724 590.804956538 379.417112128 595.80194114 376.43810583 599.298093006C373.459099532 602.794244871 367.997502909 604.701179097 363.544453517 603.575156557C359.091404125 602.449134017 355.577342674 599.032972713 354.325982103 594.613507545C354.325982103 594.613507545 354.325980659 594.613507954 354.325980659 594.613507954M264.100351412 600.356789763C264.76708332 595.812224452 267.528088219 591.896678859 271.739978081 590.06430499C275.951867944 588.231931122 279.97356061 588.532668248 283.835363211 591.019452744C287.697165813 593.50623724 289.792719599 597.790149217 289.71846167 602.382763231C289.644205242 606.97537727 286.840131376 611.160485098 282.755611528 613.261512007C278.67109168 615.362538916 272.91634874 614.92132592 269.22352149 612.189909235C265.530694239 609.45849255 263.43361802 604.901354857 264.100349928 600.356789545C264.100349928 600.356789545 264.100348444 600.356789328 264.100348444 600.356789328M178.71887793 570.644660755C181.081373214 566.705609875 185.112381632 564.176790291 189.704947403 564.1003348C194.297513174 564.023879308 197.837438174 565.909094567 200.456260502 569.682593617C203.075082831 573.456092667 203.350637546 578.261286642 201.530639306 582.478530079C199.710642443 586.69577411 195.538490017 589.443756562 190.961132815 589.824973702C186.383775612 590.206190841 181.255889694 587.506865872 178.89339441 583.567814991C176.530899127 579.62876411 176.35638136 574.583710865 178.718876644 570.644659984C178.718876644 570.644659984 178.718875357 570.644659212 178.718875357 570.644659212M111.548343666 510.142647576C115.241170921 507.411230898 119.912664928 506.648134443 124.181739888 508.343010335C128.450814849 510.037886227 130.970279212 513.184320416 131.930778457 517.675983081C132.891277702 522.167645745 131.282096786 526.719515098 127.97455294 529.906635753C124.667010134 533.093757489 119.770705383 534.010668991 115.400561788 532.596654405C111.030418193 531.18263982 107.384037169 526.703085959 106.717305268 522.158520647C106.050573366 517.613955334 107.855515519 512.874063048 111.548342774 510.14264637C111.548342774 510.14264637 111.548341882 510.142645164 111.548341882 510.142645164M73.102653991 428.321223839C77.555703392 427.195201335 82.1000287941 428.277636102 85.4075715737 431.464757864C88.7151143534 434.651879626 90.0170829319 438.920255667 89.0565836525 443.411918324C88.0960843732 447.903580981 84.9285340742 451.344036961 80.6066864647 452.899425191C76.2848393631 454.454814833 71.2794382602 453.344815316 67.8697939333 450.267167211C64.4601496065 447.189519106 62.9022915132 442.08393619 64.0086485345 437.625959238C65.1150055558 433.167982286 68.6496042222 429.447244889 73.1026536233 428.321222385C73.1026536233 428.321222385 73.1026532556 428.321220931 73.1026532556 428.321220931M69.4218343753 337.990731011C73.9640200877 338.673442605 77.7239235556 341.423532908 79.5439204182 345.640776939C81.3639172808 349.85802097 80.902634828 354.289897765 78.2838124991 358.063396815C75.6649901703 361.836895865 71.3989698796 363.785013825 66.8114866695 363.555856248C62.2240033846 363.326700169 58.0509709324 360.369941763 56.0924360585 356.215225573C54.1339011847 352.060509383 54.6835966968 346.744161607 57.4258387301 343.059376074C60.1680807635 339.37459054 64.8796488858 337.308017933 69.4218345982 337.990729527C69.4218345982 337.990729527 69.4218348211 337.990728044 69.4218348211 337.990728044M101.066331237 253.301490612C104.928133838 255.788275108 107.381873499 259.941641202 107.307617071 264.534255241C107.233360642 269.12686928 105.360288977 272.700731562 101.498486376 275.187516058C97.636683775 277.674300554 92.9032130548 277.826049133 88.7528615387 275.858259451C84.60250938 273.890471123 81.9191407992 269.589387552 81.6964235525 265.001576147C81.4737063058 260.413764742 84.1908170622 255.321811726 88.205265704 253.08981266C92.2197143458 250.857813594 97.2045294478 250.814704855 101.066332049 253.301489351C101.066332049 253.301489351 101.066332861 253.30148809 101.066332861 253.30148809M163.110895376 187.544794346C165.729717705 191.318293396 166.38586164 196.048178677 164.565864778 200.265422708C162.745867915 204.482666739 159.592800686 206.971834512 155.075541206 207.803653712C150.558281727 208.635472911 146.082261025 206.927129369 142.990110848 203.530635066C139.897959562 200.134141772 139.0948396 195.182013115 140.633092781 190.854042051C142.171345963 186.526070986 146.709028717 182.933759222 151.271267613 182.401300725C155.833506509 181.868842227 160.492074279 183.771294441 163.110896608 187.544793491C163.110896608 187.544793491 163.110897841 187.544792636 163.110897841 187.544792636M245.798319729 150.997991931C246.758818978 155.489654595 245.53180359 160.09242497 242.224260787 163.279546708C238.916717984 166.466668446 235.033905415 167.52377621 230.546380296 166.544141291C226.058855177 165.564506372 222.588519368 162.249106159 221.0502676 157.921134593C219.512014418 153.593163528 220.689351753 148.724831042 223.781503039 145.328337748C226.873654325 141.931844455 232.446659454 140.396079071 236.860559246 141.666934293C241.274459037 142.937789516 244.837821946 146.506328954 245.798321195 150.997991618C245.798321195 150.997991618 245.798322662 150.997991304 245.798322662 150.997991304M336.187868237 149.398392621C335.373951656 153.918916829 332.503827058 157.644129124 328.234752095 159.33900501C323.965677133 161.033880896 319.979333038 160.404209639 316.200002278 157.793793398C312.420671517 155.183377158 310.321066366 150.755004122 310.69208926 146.176799675C311.063110658 141.598595108 313.84839163 137.566097191 317.998743788 135.598308863C322.149095947 133.630520536 327.864777626 134.456916824 331.467120681 137.30660625C335.069463736 140.156295675 337.001786294 144.87786868 336.187869713 149.398392887C336.187869713 149.398392887 336.18787119 149.398393153 336.18787119 149.398393153M420.117274682 182.989899987C417.625078054 186.848199012 413.562282353 189.160644377 408.969716581 189.084188886C404.37715081 189.007733395 400.520810672 186.78092684 398.158315388 182.841875959C395.795820105 178.902825078 395.767341921 174.227587514 397.862629912 170.140133094C399.957916568 166.052677991 404.37730261 163.450851259 408.969868381 163.374395768C413.562434152 163.297940276 418.193204563 165.971864415 420.423275051 169.987370787C422.653345538 174.002877159 422.609472571 179.131601777 420.117275942 182.989900801C420.117275942 182.989900801 420.117277202 182.989901615 420.117277202 182.989901615M484.450487652 246.505203332C480.671156891 249.115619572 475.786270769 249.511494691 471.635918611 247.543706364C467.485566452 245.575918036 464.948025029 242.437781676 464.281293122 237.893216364C463.614561214 233.348651053 465.406081861 229.000072424 468.914013341 226.034939031C472.421943852 223.069804492 477.476652759 222.382830141 481.745727722 224.077706027C486.014802685 225.772581913 489.587381618 230.310006154 489.958403017 234.888210721C490.329424415 239.466415289 488.229819264 243.894788325 484.450488504 246.505204566C484.450488504 246.505204566 484.450489357 246.5052058 484.450489357 246.5052058M519.093503839 330.01237078C514.576244359 330.84418998 509.970437543 329.496374063 506.878286257 326.099880769C503.786134971 322.703387476 502.761357291 318.811929436 503.867714279 314.353952475C504.974071267 309.895975514 508.347243211 306.531791578 512.717387269 305.117778424C517.087530866 303.703763842 521.95909447 305.005629205 525.266637273 308.192750943C528.574180076 311.379872681 530.029524188 316.974409274 528.634150355 321.350537487C527.238776522 325.7266657 523.61076359 329.180553056 519.093504111 330.012372255C519.093504111 330.012372255 519.093504382 330.012373731 519.093504382 330.012373731"
       id="path3937" />
  </g>
  <g
     inkscape:label="Layer"
     id="layer2"
     inkscape:groupmode="layer" />
  <path
     style="fill:none;stroke:#000000;stroke-width:6.5;stroke-linecap:butt;stroke-linejoin:miter;stroke-opacity:1;stroke-miterlimit:4;stroke-dasharray:none"
     d="m 324.28571,148.07647 86.42858,28.57143 66.42857,58.57143 40.71428,82.14285 5.71429,67.85715 -23.57143,90 -52.85714,72.14285 -78.57143,44.28572 -92.14286,8.57143 L 190,575.93361 119.28571,522.36218 75.714286,440.21933 l -8.571429,-90 26.428572,-86.42858 58.571431,-69.28571 82.14285,-40.71429 z"
     id="path6768"
     inkscape:connector-curvature="0" />
  <path
     style="fill:none;stroke:#000000;stroke-width:6.5;stroke-linecap:butt;stroke-linejoin:miter;stroke-opacity:1;stroke-miterlimit:4;stroke-dasharray:none"
     d="m 152.85714,194.50504 255,-17.14286 L 521.42857,388.79075 367.14286,593.07647 120,521.6479 94.285714,265.21933 325.71429,150.93361 l 190.71428,166.42857 -70,230.71429 L 187.85714,575.93361 68.571429,351.6479 234.28571,153.79075 l 244.28572,81.42858 23.57143,241.42857 -225,125.71428 L 74.285714,440.21933 z"
     id="path6770"
     inkscape:connector-curvature="0"
     inkscape:export-filename="/home/david/siaDots68.png"
     inkscape:export-xdpi="13.327888"
     inkscape:export-ydpi="13.327888" />
</svg>
